<svg width="212" height="137" viewBox="0 0 212 137" fill="none" xmlns="http://www.w3.org/2000/svg">
<path d="M211.428 90.3759C211.219 90.7325 211.031 91.131 210.759 91.4247C210.257 92.0121 209.713 92.5575 209.128 93.0819C208.961 93.2287 208.647 93.2917 208.396 93.2917C207.267 93.3546 206.138 93.3965 205.009 93.4175C203.231 93.4595 201.454 93.4385 199.677 93.5014C197.021 93.5644 194.366 93.6692 191.71 93.7741C190.874 93.7951 190.037 93.8161 189.18 93.858C188.406 93.9 187.612 93.879 186.859 94.0258C186.462 94.1098 186.043 94.3825 185.772 94.7181C184.58 96.1655 183.451 97.6549 182.321 99.1233C181.192 100.592 180.021 102.039 178.537 103.172C176.822 104.472 174.961 105.479 172.849 105.899C172.013 106.067 171.114 105.962 170.235 105.962C170.005 105.962 169.775 105.92 169.545 105.941C168.165 106.046 166.932 105.584 165.719 105.018C163.732 104.053 161.955 102.773 160.512 101.095C159.404 99.7945 158.442 98.3681 157.439 96.9836C156.707 95.9767 156.058 94.9279 155.348 93.9C155.034 93.4385 154.553 93.2497 154.009 93.2077C153.717 93.1868 153.424 93.2077 153.131 93.2077C119.299 93.2077 85.4664 93.2077 51.6341 93.2077C51.2159 93.2077 50.7977 93.2077 50.4004 93.1658C48.9367 93.0399 47.9539 93.7322 47.1803 94.9279C44.9638 98.3261 42.2873 101.284 38.8999 103.549C37.1644 104.703 35.2616 105.416 33.1915 105.647C32.1251 105.773 31.0169 105.773 29.9505 105.479C29.6577 105.395 29.3232 105.395 28.8841 105.332C29.0722 105.563 29.1559 105.71 29.2604 105.815C31.9369 108.416 34.697 110.912 37.6662 113.136C39.8827 114.793 42.0782 116.471 44.3993 117.961C47.0548 119.66 49.794 121.233 52.5541 122.764C54.3733 123.771 56.2552 124.673 58.158 125.554C59.3917 126.142 60.6672 126.624 61.9427 127.149C63.0509 127.61 64.1592 128.072 65.2883 128.47C66.2502 128.827 67.2538 129.141 68.2366 129.456C69.303 129.813 70.3694 130.169 71.4567 130.505C72.2931 130.757 73.1295 130.966 73.9659 131.197C74.9278 131.449 75.8688 131.701 76.8306 131.952C77.2906 132.078 77.7507 132.183 78.2107 132.288C79.3816 132.519 80.5735 132.749 81.7654 132.959C82.5599 133.106 83.3545 133.274 84.1491 133.421C84.8391 133.547 85.5292 133.672 86.2192 133.756C88.3938 133.987 90.5685 134.26 92.7431 134.407C95.4823 134.595 98.2424 134.742 100.982 134.784C104.076 134.826 107.171 134.805 110.245 134.449C111.667 134.281 113.109 134.218 114.531 134.071C115.598 133.945 116.685 133.756 117.751 133.588C118.588 133.463 119.445 133.358 120.282 133.211C121.055 133.085 121.829 132.917 122.623 132.749C123.167 132.645 123.732 132.519 124.275 132.393C125.697 132.078 127.14 131.784 128.562 131.428C129.775 131.113 130.967 130.736 132.158 130.379C133.518 129.959 134.877 129.561 136.215 129.12C137.407 128.722 138.578 128.26 139.77 127.799C141.087 127.295 142.404 126.771 143.701 126.205C144.83 125.722 145.917 125.219 147.025 124.694C148.51 123.981 149.953 123.226 151.416 122.45C152.19 122.051 152.964 121.59 153.737 121.17C153.821 121.128 153.926 121.107 154.072 121.044C154.114 121.38 154.197 121.674 154.197 121.988C154.197 122.093 154.072 122.24 153.967 122.303C152.504 123.1 151.061 123.897 149.576 124.652C148.28 125.324 146.963 125.953 145.624 126.561C144.37 127.128 143.115 127.631 141.84 128.155C140.711 128.617 139.581 129.078 138.452 129.498C137.49 129.855 136.529 130.148 135.546 130.484C134.793 130.736 134.04 130.987 133.288 131.218C132.472 131.47 131.657 131.701 130.82 131.931C129.963 132.162 129.085 132.393 128.227 132.624C127.6 132.791 126.952 132.938 126.325 133.106C125.697 133.253 125.07 133.4 124.464 133.547C123.899 133.672 123.334 133.819 122.77 133.924C121.473 134.155 120.156 134.386 118.839 134.574C117.082 134.847 115.305 135.12 113.528 135.33C112.064 135.497 110.6 135.623 109.137 135.728C107.861 135.812 106.565 135.854 105.289 135.938C105.164 135.938 105.017 136.043 104.892 136.106C102.717 136.106 100.543 136.106 98.3679 136.106C98.2006 136.043 98.0542 135.938 97.887 135.938C95.4196 135.77 92.9313 135.665 90.4639 135.413C88.6029 135.246 86.7419 134.91 84.881 134.637C83.5009 134.428 82.0999 134.218 80.7199 133.966C79.5907 133.756 78.4825 133.463 77.3743 133.211C76.3706 132.98 75.3878 132.77 74.3841 132.519C73.5477 132.309 72.7113 132.057 71.8749 131.826C71.0176 131.575 70.1603 131.323 69.303 131.05C68.3203 130.736 67.3375 130.4 66.3547 130.064C65.6856 129.834 65.0165 129.582 64.3474 129.33C63.4482 128.995 62.5282 128.638 61.6291 128.26C60.8554 127.946 60.0817 127.631 59.3081 127.295C58.3462 126.876 57.3634 126.477 56.4225 126.037C55.1261 125.428 53.8506 124.799 52.5751 124.107C50.6932 123.1 48.8113 122.114 46.9921 120.981C44.2738 119.282 41.5764 117.541 39.0045 115.653C36.5998 113.891 34.2788 111.961 32.0205 109.989C30.1805 108.395 28.4659 106.675 26.7303 104.955C24.0329 102.291 21.5656 99.396 19.3073 96.3543C17.76 94.2776 16.2126 92.1589 14.8116 89.9773C13.5152 87.9845 12.3443 85.8868 11.1942 83.81C10.316 82.2158 9.4796 80.5796 8.70593 78.9224C8.03682 77.496 7.43043 76.0066 6.82404 74.5382C6.36402 73.4054 5.904 72.2727 5.4858 71.1399C5.13033 70.133 4.81668 69.1052 4.48212 68.0983C4.12665 66.9865 3.77118 65.8537 3.43662 64.7419C3.1857 63.8399 2.99751 62.9379 2.7675 62.0359C2.62113 61.4066 2.45385 60.7983 2.30748 60.169C2.18202 59.6445 2.07747 59.1201 1.97292 58.5957C1.84746 57.8825 1.722 57.1483 1.59654 56.435C1.47108 55.7008 1.34563 54.9667 1.24108 54.2115C1.05289 52.7641 0.843786 51.2957 0.697416 49.8273C0.509226 47.8974 0.341946 45.9465 0.237397 43.9957C0.132847 42.0238 0.028297 40.052 0.111937 38.0802C0.195577 36.0244 0.467406 33.9896 0.655596 31.9549C0.781056 30.7172 0.885606 29.4796 1.03198 28.2419C1.15744 27.319 1.32472 26.396 1.49199 25.473C1.61745 24.8017 1.722 24.1095 1.86837 23.4382C2.11929 22.2215 2.37021 21.0259 2.64204 19.8092C2.85114 18.8442 3.10206 17.8793 3.35298 16.9144C3.58299 16.0753 3.85482 15.2362 4.10574 14.4181C4.33575 13.7049 4.54485 12.9917 4.77486 12.2784C5.10942 11.2715 5.46489 10.2646 5.84127 9.25775C6.13401 8.46062 6.44766 7.6635 6.78222 6.86637C7.20042 5.8385 7.59771 4.8316 8.03682 3.8247C8.55956 2.67097 9.14504 1.53821 9.66779 0.384474C9.81416 0.0698191 9.91871 0.0698191 10.1696 0.279589C10.5669 0.594244 10.6715 0.9089 10.4206 1.41235C9.75143 2.77585 9.10322 4.13936 8.49683 5.52384C7.93227 6.84539 7.43043 8.18792 6.92859 9.53045C6.46857 10.7681 5.98764 12.0267 5.59035 13.2853C5.23488 14.3971 4.92123 15.5509 4.60758 16.6626C4.35666 17.5646 4.08483 18.4457 3.85482 19.3477C3.6039 20.3965 3.37389 21.4454 3.16479 22.4733C3.03933 23.0606 2.93478 23.648 2.83023 24.2353C2.5584 25.7037 2.28657 27.1931 2.05656 28.6615C1.9311 29.4796 1.82655 30.2977 1.76382 31.1368C1.40835 34.9965 1.19926 38.8563 1.32472 42.7161C1.40835 45.2543 1.55472 47.7715 1.78473 50.2888C1.9311 51.9879 2.26566 53.6871 2.53749 55.3652C2.74659 56.6238 2.93478 57.8825 3.1857 59.1201C3.3948 60.1899 3.68754 61.2388 3.93846 62.2876C4.16847 63.1687 4.37757 64.0707 4.62849 64.9517C4.83759 65.7279 5.0676 66.504 5.31852 67.2802C5.65308 68.308 5.98764 69.3149 6.34311 70.3218C6.67767 71.2868 7.03314 72.2517 7.40952 73.1957C7.80681 74.2026 8.22501 75.2095 8.6432 76.1954C9.14504 77.3491 9.64688 78.5238 10.2115 79.6566C10.9015 81.0621 11.6333 82.4675 12.407 83.831C13.4734 85.698 14.5398 87.5859 15.7108 89.3899C16.9654 91.3198 18.3036 93.1868 19.6628 95.0118C21.7119 97.7598 23.9075 100.382 26.2494 102.857C27.3785 104.053 28.8631 104.514 30.4314 104.661C31.2887 104.745 32.1878 104.766 33.0451 104.661C34.6552 104.493 36.2235 104.074 37.5826 103.109C38.4608 102.501 39.4227 101.997 40.2591 101.347C41.0955 100.697 41.8691 99.9204 42.601 99.1442C43.3538 98.3471 44.0438 97.4871 44.7338 96.627C45.2147 96.0187 45.6539 95.3684 46.093 94.7181C46.5948 94.0049 47.0757 93.2917 47.6194 92.5994C47.7658 92.4106 48.0376 92.2428 48.2467 92.2218C49.1667 92.096 50.1077 91.9911 51.0277 91.9701C51.9268 91.9491 52.826 92.033 53.7251 92.033C54.2897 92.033 54.8751 91.9491 55.4397 91.9491C56.6316 91.9491 57.8234 92.033 59.0153 92.0121C59.789 91.9911 60.5417 91.8442 61.3154 91.8023C62.5073 91.7394 63.6992 91.6974 64.891 91.6974C65.5183 91.6974 66.1456 91.8023 66.7729 91.8233C69.8049 91.8442 72.8368 91.8442 75.8688 91.8233C76.7888 91.8233 77.6879 91.5925 78.608 91.5925C79.988 91.6135 81.3681 91.7603 82.7481 91.8442C83.2291 91.8652 83.7309 91.8442 84.2118 91.8442C107.61 91.8442 130.987 91.8442 154.386 91.8442C154.867 91.8442 155.201 92.0121 155.557 92.3267C156.602 93.2077 157.271 94.3825 157.94 95.5152C158.672 96.7319 159.467 97.9066 160.429 98.9764C160.91 99.5218 161.328 100.13 161.809 100.697C162.541 101.599 163.523 102.207 164.506 102.773C165.656 103.424 166.848 103.948 168.144 104.242C168.521 104.326 168.918 104.388 169.315 104.43C171.678 104.661 173.895 104.242 175.986 103.067C177.909 101.997 179.394 100.424 180.753 98.7457C182.154 97.0465 183.451 95.2635 184.768 93.4804C185.27 92.7882 185.855 92.4316 186.754 92.4526C188.427 92.4945 190.121 92.4945 191.794 92.3687C194.303 92.1589 196.833 92.1799 199.342 92.1379C201.349 92.096 203.378 91.9911 205.385 91.9491C205.866 91.9491 206.368 92.0121 206.828 92.1169C207.434 92.2428 207.978 92.2428 208.396 91.6764C208.793 91.152 209.274 90.6905 209.609 90.1451C209.943 89.6207 209.797 89.348 209.274 89.0123C208.919 88.8026 208.563 88.5718 208.292 88.2991C207.978 87.9845 207.811 87.5859 207.915 87.1244C207.936 87.0195 207.936 86.9146 207.936 86.8098C207.873 85.719 207.79 84.6491 207.727 83.5583C207.706 83.2646 207.727 82.971 207.727 82.6773C207.664 81.0411 207.602 79.4049 207.539 77.7687C207.518 77.4121 207.518 77.0555 207.518 76.7198C207.539 76.0066 207.832 75.4822 208.522 75.2095C208.961 75.0416 209.191 74.706 209.17 74.2026C209.086 72.6083 209.023 70.9931 208.94 69.3988C208.919 69.0003 208.898 68.5807 208.835 68.1822C208.752 67.5319 208.417 67.0494 207.852 66.7138C206.953 66.1684 206.682 65.3083 206.577 64.3014C206.472 63.1896 206.326 62.0779 206.159 60.9871C206.054 60.2529 205.929 59.4977 205.741 58.7845C205.26 56.8965 204.8 55.0086 203.691 53.3514C203.001 52.3236 202.04 51.5684 200.994 50.96C198.694 49.6175 196.436 48.2121 194.073 46.9744C192.484 46.1353 190.79 45.4851 189.117 44.7928C187.235 44.0376 185.353 43.2825 183.43 42.6112C181.882 42.0868 180.272 41.6672 178.683 41.2687C177.638 40.996 176.571 40.7652 175.505 40.5764C173.957 40.3037 172.41 40.052 170.842 39.8003C169.755 39.6325 168.667 39.4646 167.58 39.3388C166.618 39.2339 165.656 39.1919 164.715 39.108C163.962 39.0451 163.189 38.9612 162.436 38.8983C162.018 38.8563 161.579 38.9402 161.223 38.7724C160.345 38.3738 159.509 37.9333 158.693 37.4089C155.933 35.6259 153.194 33.8009 150.434 31.9968C147.004 29.7733 143.596 27.5497 140.146 25.3471C136.549 23.0606 132.932 20.8161 129.336 18.5086C127.705 17.4598 126.115 16.348 124.505 15.2362C123.481 14.523 122.352 14.0195 121.181 13.621C119.152 12.9497 117.124 12.2994 115.096 11.6072C113.423 11.0408 111.75 10.3905 110.057 9.92901C109.011 9.63534 107.903 9.53045 106.816 9.44654C105.665 9.34166 104.495 9.34166 103.324 9.2997C102.989 9.2997 102.654 9.34166 102.32 9.34166C99.7898 9.27873 97.2806 9.19482 94.7505 9.13189C93.8304 9.11091 92.9104 9.19482 91.9903 9.15287C89.983 9.08993 87.9547 8.98505 85.9474 8.90114C85.0482 8.88016 84.1491 8.90114 83.2291 8.92212C82.1627 8.9431 81.0753 8.90114 80.0089 9.00603C74.4678 9.55143 68.9057 9.15287 63.3646 9.23677C61.6918 9.25775 60.0399 9.06896 58.3671 9.027C57.8235 9.00603 57.2798 9.11091 56.7361 9.15287C56.4016 9.17384 56.0461 9.23677 55.7325 9.15287C55.0006 8.96407 54.3106 9.17384 53.6205 9.34166C52.2614 9.67729 50.9023 10.0549 49.564 10.4325C48.2467 10.7891 46.9084 11.1457 45.5702 11.4813C44.6083 11.733 43.6465 11.9428 42.6846 12.1526C40.6145 12.6141 38.5445 13.0756 36.4744 13.4951C35.0316 13.7888 33.5679 13.9776 32.1042 14.2083C31.7487 14.2713 31.3932 14.3552 31.0378 14.46C29.6577 14.8586 28.2986 15.2782 26.9185 15.6977C26.4376 15.8445 26.3539 16.2641 26.333 16.6836C26.2494 18.0681 25.9148 19.3267 25.0157 20.4805C23.782 22.0537 22.632 23.7109 21.6492 25.452C21.3983 25.8925 21.001 26.2282 20.7083 26.6477C19.4955 28.3678 18.3245 30.0879 17.1117 31.808C16.8399 32.1856 16.5054 32.5422 16.1917 32.8988C16.1081 32.9827 15.9617 32.9827 15.8362 33.0247C15.7944 32.8779 15.7108 32.6891 15.7526 32.5632C15.8362 32.3534 15.9826 32.1646 16.129 31.9968C18.4709 28.7034 20.7919 25.431 23.1338 22.1586C23.782 21.2566 24.4302 20.3756 25.1203 19.5155C25.7685 18.7184 25.8312 17.8164 25.7267 16.8724C25.6639 16.369 25.6221 15.8655 25.5803 15.3621C25.5594 15.0894 25.6848 14.9635 25.9358 14.9215C26.6885 14.7537 27.4204 14.5859 28.1731 14.4181C29.365 14.1454 30.5569 13.8937 31.7487 13.6419C32.7733 13.4112 33.7979 13.1805 34.8434 12.9707C35.9725 12.719 37.1017 12.4672 38.2308 12.2155C39.2345 11.9848 40.2173 11.754 41.2209 11.5233C42.3083 11.2715 43.3956 11.0618 44.4829 10.81C45.5911 10.5583 46.7203 10.3066 47.8285 10.0339C48.6231 9.82413 49.3967 9.5724 50.1913 9.34166C51.1532 9.08993 52.0941 8.79626 53.0769 8.60746C54.2688 8.37672 55.4815 8.2089 56.6943 8.02011C56.8407 7.99913 57.008 7.99913 57.1543 7.99913C73.5687 7.99913 89.983 7.99913 106.397 8.02011C107.589 8.02011 108.781 8.27183 109.973 8.46062C112.252 8.79626 114.301 9.78218 116.455 10.5373C118.316 11.1876 120.198 11.733 122.059 12.4043C123 12.7399 123.92 13.1805 124.777 13.7259C126.722 14.9425 128.625 16.2641 130.569 17.5227C132.451 18.7394 134.375 19.9141 136.257 21.1307C138.473 22.5362 140.69 23.9626 142.906 25.3681C145.269 26.8784 147.632 28.3888 149.995 29.9201C152.002 31.2207 153.988 32.5213 155.996 33.8218C157.669 34.9126 159.341 36.0034 161.035 37.0733C161.349 37.2621 161.725 37.4089 162.101 37.4509C163.879 37.7026 165.635 37.8914 167.413 38.1221C169.274 38.3529 171.135 38.6046 172.996 38.8563C174.668 39.0871 176.362 39.2549 178.035 39.5695C179.352 39.8003 180.649 40.1569 181.945 40.5555C183.241 40.933 184.517 41.3945 185.792 41.856C187.193 42.3805 188.573 42.9259 189.974 43.4922C191.124 43.9537 192.295 44.4362 193.425 44.9816C194.993 45.7577 196.561 46.5549 198.067 47.4359C199.593 48.3169 201.078 49.3029 202.541 50.2888C204.172 51.4006 205.322 52.9109 205.929 54.7988C206.431 56.3092 206.912 57.8195 207.288 59.3718C207.539 60.4626 207.602 61.6164 207.748 62.7281C207.811 63.3155 207.852 63.9238 207.915 64.5112C207.999 65.2454 208.626 65.4761 209.191 65.6859C209.734 65.8957 210.006 66.2313 210.027 66.8187C210.027 67.2382 210.069 67.6787 210.09 68.0983C210.173 69.6296 210.257 71.1609 210.362 72.6922C210.424 73.6781 210.508 74.6641 210.592 75.671C210.634 76.1115 210.466 76.3422 210.027 76.4681C209.003 76.7408 208.773 77.0764 208.814 78.1462C208.919 80.7264 209.044 83.2856 209.149 85.8658C209.17 86.3063 209.191 86.7468 209.212 87.1873C209.233 87.6279 209.463 87.9006 209.902 87.9006C210.404 87.9006 210.864 88.0054 211.261 88.2991C211.428 88.9075 211.428 89.6417 211.428 90.3759Z" fill="#2A9040"/>
</svg>
